<mxfile host="app.diagrams.net" modified="2022-10-13T04:46:53.150Z" agent="5.0 (Windows NT 10.0; Win64; x64) AppleWebKit/537.36 (KHTML, like Gecko) Chrome/106.0.0.0 Safari/537.36 Edg/106.0.1370.42" etag="0fOSsiV0JTgM-79h51vp" version="20.4.0" type="github">
  <diagram id="prtHgNgQTEPvFCAcTncT" name="Page-1">
    <mxGraphModel dx="2014" dy="1121" grid="1" gridSize="10" guides="1" tooltips="1" connect="1" arrows="1" fold="1" page="1" pageScale="1" pageWidth="827" pageHeight="1169" math="0" shadow="0">
      <root>
        <mxCell id="0" />
        <mxCell id="1" parent="0" />
        <mxCell id="pjRg0b6heBDauY-6a8rT-6" style="rounded=0;orthogonalLoop=1;jettySize=auto;html=1;exitX=1;exitY=0.5;exitDx=0;exitDy=0;entryX=0;entryY=0.5;entryDx=0;entryDy=0;startArrow=classicThin;startFill=1;" edge="1" parent="1" source="pjRg0b6heBDauY-6a8rT-1" target="pjRg0b6heBDauY-6a8rT-5">
          <mxGeometry relative="1" as="geometry" />
        </mxCell>
        <mxCell id="pjRg0b6heBDauY-6a8rT-7" style="edgeStyle=none;rounded=0;orthogonalLoop=1;jettySize=auto;html=1;exitX=0.5;exitY=1;exitDx=0;exitDy=0;entryX=0.5;entryY=0;entryDx=0;entryDy=0;startArrow=none;startFill=0;" edge="1" parent="1" source="pjRg0b6heBDauY-6a8rT-1" target="pjRg0b6heBDauY-6a8rT-3">
          <mxGeometry relative="1" as="geometry" />
        </mxCell>
        <mxCell id="pjRg0b6heBDauY-6a8rT-1" value="项目部&lt;br&gt;项目经理" style="rounded=0;whiteSpace=wrap;html=1;" vertex="1" parent="1">
          <mxGeometry x="270" y="110" width="120" height="60" as="geometry" />
        </mxCell>
        <mxCell id="pjRg0b6heBDauY-6a8rT-15" value="" style="edgeStyle=none;rounded=0;orthogonalLoop=1;jettySize=auto;html=1;startArrow=none;startFill=0;" edge="1" parent="1" source="pjRg0b6heBDauY-6a8rT-2" target="pjRg0b6heBDauY-6a8rT-14">
          <mxGeometry relative="1" as="geometry" />
        </mxCell>
        <mxCell id="pjRg0b6heBDauY-6a8rT-2" value="项目部&lt;br&gt;项目技术负责人" style="rounded=0;whiteSpace=wrap;html=1;" vertex="1" parent="1">
          <mxGeometry x="370" y="330" width="120" height="60" as="geometry" />
        </mxCell>
        <mxCell id="pjRg0b6heBDauY-6a8rT-9" style="edgeStyle=none;rounded=0;orthogonalLoop=1;jettySize=auto;html=1;exitX=0.5;exitY=0;exitDx=0;exitDy=0;entryX=0.5;entryY=0;entryDx=0;entryDy=0;startArrow=none;startFill=0;" edge="1" parent="1" source="pjRg0b6heBDauY-6a8rT-4" target="pjRg0b6heBDauY-6a8rT-4">
          <mxGeometry relative="1" as="geometry" />
        </mxCell>
        <mxCell id="pjRg0b6heBDauY-6a8rT-10" style="edgeStyle=none;rounded=0;orthogonalLoop=1;jettySize=auto;html=1;entryX=0.5;entryY=0;entryDx=0;entryDy=0;startArrow=none;startFill=0;exitX=0.5;exitY=1;exitDx=0;exitDy=0;" edge="1" parent="1" source="pjRg0b6heBDauY-6a8rT-3" target="pjRg0b6heBDauY-6a8rT-4">
          <mxGeometry relative="1" as="geometry">
            <Array as="points" />
          </mxGeometry>
        </mxCell>
        <mxCell id="pjRg0b6heBDauY-6a8rT-11" style="edgeStyle=none;rounded=0;orthogonalLoop=1;jettySize=auto;html=1;exitX=0.5;exitY=1;exitDx=0;exitDy=0;entryX=0.5;entryY=0;entryDx=0;entryDy=0;startArrow=none;startFill=0;" edge="1" parent="1" source="pjRg0b6heBDauY-6a8rT-3" target="pjRg0b6heBDauY-6a8rT-2">
          <mxGeometry relative="1" as="geometry" />
        </mxCell>
        <mxCell id="pjRg0b6heBDauY-6a8rT-3" value="项目部&lt;br&gt;项目防疫负责人" style="rounded=0;whiteSpace=wrap;html=1;" vertex="1" parent="1">
          <mxGeometry x="270" y="220" width="120" height="60" as="geometry" />
        </mxCell>
        <mxCell id="pjRg0b6heBDauY-6a8rT-13" value="" style="edgeStyle=none;rounded=0;orthogonalLoop=1;jettySize=auto;html=1;startArrow=none;startFill=0;" edge="1" parent="1" source="pjRg0b6heBDauY-6a8rT-4" target="pjRg0b6heBDauY-6a8rT-12">
          <mxGeometry relative="1" as="geometry" />
        </mxCell>
        <mxCell id="pjRg0b6heBDauY-6a8rT-4" value="项目部&lt;br&gt;项目实施负责人" style="rounded=0;whiteSpace=wrap;html=1;" vertex="1" parent="1">
          <mxGeometry x="180" y="330" width="120" height="60" as="geometry" />
        </mxCell>
        <mxCell id="pjRg0b6heBDauY-6a8rT-5" value="技术部&lt;br&gt;公司技术负责人" style="rounded=0;whiteSpace=wrap;html=1;" vertex="1" parent="1">
          <mxGeometry x="480" y="110" width="120" height="60" as="geometry" />
        </mxCell>
        <mxCell id="pjRg0b6heBDauY-6a8rT-12" value="项目部&lt;br&gt;项目实施人员" style="rounded=0;whiteSpace=wrap;html=1;" vertex="1" parent="1">
          <mxGeometry x="180" y="450" width="120" height="60" as="geometry" />
        </mxCell>
        <mxCell id="pjRg0b6heBDauY-6a8rT-14" value="项目部&lt;br&gt;项目工程师" style="rounded=0;whiteSpace=wrap;html=1;" vertex="1" parent="1">
          <mxGeometry x="370" y="450" width="120" height="60" as="geometry" />
        </mxCell>
      </root>
    </mxGraphModel>
  </diagram>
</mxfile>
